<?xml version="1.0" standalone="no"?>
<!DOCTYPE svg PUBLIC "-//W3C//DTD SVG 20010904//EN"
 "http://www.w3.org/TR/2001/REC-SVG-20010904/DTD/svg10.dtd">
<svg version="1.0" xmlns="http://www.w3.org/2000/svg"
 width="1024.000000pt" height="1024.000000pt" viewBox="0 0 1024.000000 1024.000000"
 preserveAspectRatio="xMidYMid meet">

<g transform="translate(0.000000,1024.000000) scale(0.100000,-0.100000)"
fill="#000000" stroke="none">
<path d="M0 5120 l0 -5120 5120 0 5120 0 0 5120 0 5120 -5120 0 -5120 0 0
-5120z m2415 1290 l0 -205 -202 -3 -203 -2 0 -1080 0 -1080 203 -2 202 -3 0
-205 0 -205 -462 -3 -463 -2 0 1500 0 1500 463 -2 462 -3 0 -205z m6333 -1287
l-3 -1498 -460 0 -459 0 1 23 c0 12 1 105 2 207 l1 185 200 0 200 0 0 1080 0
1080 -198 0 c-109 0 -201 2 -203 4 -2 2 -3 97 -1 210 l3 206 459 0 460 0 -2
-1497z m-3530 831 c42 -8 111 -27 152 -41 93 -31 260 -109 260 -120 0 -11
-180 -363 -185 -363 -2 0 -36 18 -77 39 -122 66 -248 104 -353 105 -102 1
-151 -18 -167 -66 -21 -63 36 -114 171 -154 353 -103 453 -145 537 -230 87
-86 124 -185 124 -334 0 -206 -90 -359 -262 -443 -112 -55 -175 -68 -345 -74
-175 -6 -297 10 -453 59 -106 33 -299 123 -306 143 -6 14 9 45 118 253 l70
133 31 -21 c245 -161 633 -223 663 -105 17 69 -32 111 -180 156 -317 96 -412
135 -501 207 -120 95 -169 263 -130 447 45 210 205 356 450 410 85 19 289 18
383 -1z m-1917 -421 c183 -230 338 -424 344 -431 9 -10 11 74 7 360 -3 206 -2
400 2 431 l7 57 230 0 229 0 0 -830 0 -830 -189 0 -189 0 -154 188 c-193 234
-487 598 -513 634 -11 15 -22 28 -25 28 -3 0 -4 -191 -2 -425 l2 -425 -235 0
-235 0 0 830 0 830 194 0 193 0 334 -417z m3277 62 c93 -192 177 -367 188
-388 l20 -39 90 188 c49 103 132 278 185 388 l96 201 256 3 257 2 0 -830 0
-830 -230 0 -230 0 -1 448 0 447 -40 -80 c-21 -44 -88 -183 -147 -310 l-108
-230 -130 -3 -129 -3 -145 307 c-80 168 -147 307 -150 309 -3 2 -3 -197 -1
-441 l3 -444 -231 0 -231 0 0 830 0 830 255 -2 255 -3 168 -350z m-3988 -2575
l0 -89 35 24 c52 35 88 40 133 18 52 -25 63 -66 60 -212 l-3 -116 -25 0 -25 0
-5 127 c-6 151 -17 174 -78 164 -20 -3 -47 -17 -61 -31 -24 -24 -26 -34 -31
-143 -5 -117 -5 -117 -30 -117 l-25 0 -3 232 -2 232 22 3 c13 2 26 2 31 0 4
-2 7 -43 7 -92z m2330 -116 l5 -209 33 0 c23 0 34 -5 38 -19 8 -24 -11 -36
-57 -36 -65 0 -68 9 -71 253 -3 224 -2 231 37 222 6 -1 12 -84 15 -211z m2140
61 c0 -80 4 -145 9 -145 4 0 43 36 85 80 64 68 81 80 108 80 l32 0 -68 -69
-68 -69 66 -93 c36 -50 66 -96 66 -101 0 -4 -11 -8 -25 -8 -19 0 -36 17 -81
80 -30 44 -59 80 -63 80 -4 0 -19 -13 -34 -28 -22 -23 -27 -37 -27 -81 0 -50
-1 -52 -25 -49 l-25 3 -3 233 -2 232 27 0 28 0 0 -145z m918 113 c-2 -28 -8
-34 -30 -36 -26 -3 -28 -1 -28 32 0 33 2 36 31 36 28 0 30 -2 27 -32z m-6308
-145 c69 -89 131 -168 138 -175 9 -10 12 24 12 165 l0 177 25 0 25 0 0 -230
c0 -212 -1 -230 -17 -230 -27 0 -30 4 -169 183 l-129 169 -3 -177 -2 -176 -28
3 -27 3 -3 228 -2 228 27 -3 c23 -2 51 -33 153 -165z m2370 147 c44 -23 44
-23 29 -51 -10 -20 -10 -20 -43 1 -75 46 -196 16 -196 -49 0 -40 24 -56 125
-85 111 -31 145 -61 145 -130 0 -86 -74 -134 -191 -123 -59 5 -136 38 -146 63
-3 8 0 21 6 28 10 12 21 10 68 -15 99 -52 203 -31 203 41 0 41 -31 65 -107 84
-91 23 -138 49 -153 86 -23 57 7 131 63 155 49 22 150 19 197 -5z m1985 -125
c44 -80 82 -145 85 -145 3 0 40 64 82 143 71 132 78 142 107 145 l31 3 0 -230
0 -231 -25 0 -25 0 -2 178 -3 177 -75 -137 c-45 -83 -81 -138 -90 -138 -9 0
-45 54 -90 135 l-75 135 -3 -175 -2 -176 -28 3 -27 3 -3 215 c-1 118 0 220 2
227 3 7 18 13 33 13 26 -1 35 -13 108 -145z m-3645 80 l0 -55 40 0 c33 0 40
-3 40 -20 0 -17 -7 -20 -40 -20 l-40 0 0 -114 c0 -127 6 -140 62 -134 24 2 33
-1 36 -14 7 -38 -94 -52 -128 -18 -18 18 -20 33 -20 150 l0 130 -25 0 c-18 0
-25 5 -25 20 0 15 7 20 25 20 24 0 25 3 25 55 0 52 1 55 25 55 24 0 25 -3 25
-55z m5390 1 l0 -55 38 -3 c51 -4 51 -32 -1 -36 l-38 -3 3 -122 3 -122 42 1
c29 0 44 -4 48 -14 8 -22 -8 -34 -57 -39 -33 -4 -49 -1 -68 15 -24 19 -25 26
-28 151 -3 121 -5 131 -23 131 -12 0 -19 7 -19 20 0 13 7 20 20 20 18 0 20 7
20 55 0 54 0 55 30 55 30 0 30 -1 30 -54z m-5593 -73 c39 -26 53 -71 53 -176
0 -56 5 -98 11 -104 7 -7 9 -19 5 -28 -8 -23 -49 -15 -60 11 l-9 21 -35 -23
c-52 -36 -121 -33 -164 5 -27 24 -33 36 -33 69 0 73 47 104 158 103 l67 0 0
29 c0 63 -79 91 -152 54 -27 -14 -32 -14 -45 -1 -14 13 -12 17 11 32 57 37
143 41 193 8z m913 11 c22 -9 46 -26 53 -38 6 -11 15 -68 19 -126 4 -58 10
-120 14 -138 6 -31 5 -33 -17 -30 -13 1 -28 13 -34 24 l-11 22 -28 -20 c-35
-26 -106 -34 -146 -18 -51 21 -73 81 -49 134 19 41 65 58 147 54 72 -3 72 -3
72 23 0 15 -9 38 -21 53 -17 21 -29 26 -66 26 -25 0 -58 -8 -74 -17 -26 -16
-31 -16 -39 -3 -12 20 6 37 56 55 51 19 75 18 124 -1z m409 -7 c31 -26 41 -76
41 -202 l0 -125 -25 0 -25 0 0 103 c0 56 -5 119 -11 140 -17 64 -77 74 -136
23 -27 -23 -28 -28 -33 -143 -5 -118 -5 -118 -30 -118 l-25 0 -3 168 -2 167
25 0 c21 0 25 -5 25 -30 l0 -31 38 30 c20 16 46 32 57 34 28 7 87 -2 104 -16z
m895 -5 c16 -9 35 -27 43 -39 14 -21 13 -23 -10 -28 -18 -5 -31 -1 -46 14 -86
86 -213 -21 -170 -143 28 -78 113 -105 168 -52 18 18 33 24 49 19 26 -6 27
-12 7 -39 -21 -31 -76 -54 -128 -54 -118 0 -196 141 -141 255 40 85 144 116
228 67z m306 12 c22 -9 46 -26 53 -38 7 -11 15 -68 19 -126 4 -58 8 -118 10
-135 2 -24 -1 -30 -17 -30 -11 0 -24 10 -30 21 l-11 22 -28 -20 c-35 -26 -106
-34 -146 -18 -32 13 -60 55 -60 89 0 69 57 104 161 99 69 -3 69 -3 69 23 0 15
-9 38 -21 53 -17 21 -29 26 -65 26 -25 0 -59 -7 -76 -16 -25 -13 -32 -14 -39
-2 -11 17 9 36 57 53 51 19 75 18 124 -1z m565 -13 c45 -26 75 -77 75 -126 l0
-42 -119 5 c-146 6 -154 4 -140 -37 15 -42 64 -81 100 -81 33 0 89 25 89 40 0
6 11 10 25 10 31 0 32 -20 3 -48 -73 -67 -189 -54 -251 30 -25 33 -34 122 -18
170 30 92 147 131 236 79z m348 3 c30 -16 33 -24 16 -41 -9 -9 -18 -8 -36 4
-30 20 -104 23 -126 4 -20 -16 -22 -54 -4 -69 6 -5 44 -19 83 -31 81 -24 104
-44 104 -90 0 -43 -14 -68 -50 -86 -77 -40 -238 3 -209 56 9 18 11 18 38 -2
66 -49 176 -30 169 29 -3 24 -11 30 -81 52 -98 32 -117 48 -117 98 0 85 114
126 213 76z m1028 -5 c36 -25 46 -64 52 -207 5 -111 4 -113 -17 -110 -11 2
-25 13 -30 24 l-10 22 -28 -21 c-17 -12 -48 -22 -81 -25 -49 -4 -57 -1 -88 26
-45 40 -47 98 -6 140 26 25 33 27 112 27 l85 0 0 33 c0 46 -30 72 -82 72 -24
0 -56 -7 -72 -15 -22 -12 -32 -12 -42 -4 -21 17 -1 36 55 54 55 17 114 11 152
-16z m925 0 c38 -23 77 -96 72 -136 l-3 -28 -120 3 c-139 3 -154 -2 -136 -46
19 -44 45 -64 94 -69 36 -4 48 -1 74 21 47 39 85 33 57 -9 -34 -52 -133 -71
-201 -38 -98 46 -121 203 -42 282 53 54 138 62 205 20z m754 -5 c24 -23 25
-30 28 -169 l3 -145 -25 0 -26 0 0 118 c0 129 -10 161 -52 176 -36 13 -85 -9
-109 -48 -15 -25 -19 -51 -19 -138 l0 -108 -25 0 -25 0 0 170 c0 163 1 170 20
170 15 0 20 -7 20 -25 0 -29 7 -31 31 -9 27 25 91 44 124 38 17 -3 41 -17 55
-30z m322 10 c15 -8 32 -22 37 -31 9 -15 10 -12 11 15 0 27 4 32 25 32 l25 0
0 -180 c0 -206 -7 -234 -65 -270 -51 -32 -145 -34 -194 -5 -44 26 -60 50 -44
66 10 10 21 6 51 -14 44 -31 106 -36 151 -12 31 15 51 59 51 107 l0 29 -35
-27 c-50 -38 -110 -43 -155 -12 -57 39 -80 82 -80 150 0 138 107 211 222 152z
m-1812 -13 l0 -29 31 29 c41 38 89 41 89 4 0 -20 -5 -25 -26 -25 -16 0 -39
-13 -60 -34 l-34 -34 0 -111 0 -111 -25 0 -25 0 0 170 0 170 25 0 c21 0 25 -5
25 -29z m1140 -141 l0 -170 -25 0 -25 0 0 170 0 170 25 0 25 0 0 -170z"/>
<path d="M2022 2794 c-30 -21 -30 -77 0 -98 31 -22 76 -20 116 4 27 17 32 25
32 59 0 32 -4 40 -22 45 -42 11 -103 6 -126 -10z"/>
<path d="M2955 2785 c-30 -29 -31 -45 -4 -79 24 -30 72 -35 118 -11 32 16 41
33 41 75 0 31 -18 40 -88 40 -32 0 -49 -6 -67 -25z"/>
<path d="M4565 2785 c-30 -29 -31 -45 -4 -79 24 -30 72 -35 118 -11 32 16 41
33 41 75 0 31 -18 40 -88 40 -32 0 -49 -6 -67 -25z"/>
<path d="M5155 2943 c-36 -9 -85 -68 -85 -103 0 -6 40 -10 110 -10 93 0 110 2
110 15 0 32 -32 77 -65 91 -36 15 -37 15 -70 7z"/>
<path d="M6480 2792 c-27 -22 -29 -65 -5 -92 24 -26 80 -26 123 0 27 17 32 25
32 59 0 32 -4 40 -22 45 -45 12 -106 6 -128 -12z"/>
<path d="M7433 2935 c-31 -13 -63 -59 -63 -90 0 -13 17 -15 111 -15 110 0 110
0 104 23 -13 41 -36 68 -70 83 -41 17 -42 17 -82 -1z"/>
<path d="M8523 2920 c-84 -51 -61 -203 34 -229 72 -20 133 34 133 119 0 52
-22 96 -60 115 -39 20 -68 19 -107 -5z"/>
</g>
</svg>
